# xmcd
#
# Track frame offsets: 
#        150
#        18247
#        41622
#        57189
#        71130
#        87948
#        113243
#        128500
#        139793
#        158361
#        175545
#        192036
#
# Disc length: 2714 seconds
#
# Revision: 0
# Processed by: cddbd v1.5.2PL0 Copyright (c) Steve Scherf et al.
# Submitted via: ExactAudioCopy v0.99pb4
#
DISCID=900a980c
DTITLE=Lucinda Williams - Blessed [The Kitchen Tapes]
DYEAR=2011
DGENRE=Alternative
TTITLE0=Buttercup
TTITLE1=I Don't Know How You're Livin'
TTITLE2=Copenhagen
TTITLE3=Born To Be Loved
TTITLE4=Seeing Black
TTITLE5=Soldier's Song
TTITLE6=Blessed
TTITLE7=Sweet Love
TTITLE8=Ugly Truth
TTITLE9=Convince Me
TTITLE10=Awakening
TTITLE11=Kiss Like Your Kiss
EXTD=
EXTT0=
EXTT1=
EXTT2=
EXTT3=
EXTT4=
EXTT5=
EXTT6=
EXTT7=
EXTT8=
EXTT9=
EXTT10=
EXTT11=
PLAYORDER=
